# xmcd
#
# Track frame offsets:
# 150
# 17696
# 29248
# 44974
# 58883
# 72760
# 86837
# 100112
# 115857
# 129553
# 148169
# 163320
# 176384
# 190216
# 205223
# 225447
# 243719
# 258802
# 274595
# 293529
#
# Disc length: 4124 seconds
#
#
# Revision: 0
# Processed by: cddbd v1.5.2PL0 Copyright (c) Steve Scherf et al.
# Submitted via: FreeRIP 2.95 
#
DISCID=2e101a14
DTITLE=Varios - Gauchesco
DYEAR=1900
DGENRE=Sertaneja
TTITLE0=Hoje a Festa Vai Ser Nossa
TTITLE1=Requebra na Vaneira
TTITLE2=Nação Fandangueira
TTITLE3=Se Embora na Muvuca
TTITLE4=Vulco, Vulco
TTITLE5=Morena Linda
TTITLE6=Beijar Ta Na Moda
TTITLE7=Fandango de Galpão
TTITLE8=Bate Coxa
TTITLE9=Pau de Macarrão
TTITLE10=De Blusinha Branca
TTITLE11=Baile da Gabriela
TTITLE12=Credo em Cruz Ave Maria
TTITLE13=Gaiteiro de Galpão
TTITLE14=O Titio é Louco
TTITLE15=Me Controlando
TTITLE16=Pancada de Vaneira
TTITLE17=Vem Cá Carlota
TTITLE18=Vanerira
TTITLE19=Saudade Bateu
EXTD=
EXTT0=
EXTT1=
EXTT2=
EXTT3=
EXTT4=
EXTT5=
EXTT6=
EXTT7=
EXTT8=
EXTT9=
EXTT10=
EXTT11=
EXTT12=
EXTT13=
EXTT14=
EXTT15=
EXTT16=
EXTT17=
EXTT18=
EXTT19=
PLAYORDER=
